#define baseBt_width 16
#define baseBt_height 16
static unsigned char baseBt_bits[] = {
   0x00, 0x00, 0x00, 0x00, 0x90, 0x03, 0xb0, 0x07, 0xe0, 0x0d, 0xc0, 0x19,
   0x80, 0x0d, 0x80, 0x07, 0x80, 0x07, 0x80, 0x0d, 0xc0, 0x19, 0xe0, 0x0d,
   0xb0, 0x07, 0x96, 0xc3, 0x06, 0xc0, 0xfe, 0xff };
