#define dynamoPower_width 16
#define dynamoPower_height 16
static unsigned char dynamoPower_bits[] = {
   0x00, 0x00, 0x00, 0x00, 0x00, 0x04, 0x00, 0x06, 0x00, 0x07, 0x80, 0x03,
   0xc0, 0x01, 0xe0, 0x1f, 0xf0, 0x0f, 0x80, 0x07, 0x80, 0x03, 0xc0, 0x01,
   0xc0, 0x00, 0x60, 0x00, 0x20, 0x00, 0x00, 0x00 };
