#define reporting_width 16
#define reporting_height 16
static unsigned char reporting_bits[] = {
   0x00, 0x80, 0x00, 0xc0, 0x00, 0xe0, 0x00, 0xf0, 0x00, 0xf8, 0x00, 0xfc,
   0x00, 0xfe, 0x00, 0xfb, 0x80, 0xf1, 0xc0, 0xe0, 0x60, 0xc0, 0x30, 0x80,
   0xf8, 0xf1, 0xfc, 0xf1, 0xfe, 0xf1, 0xff, 0xff };
