#define reporting_width 16
#define reporting_height 16
static unsigned char reporting_bits[] = {
   0x00, 0x80, 0x00, 0xc0, 0x00, 0xe0, 0x00, 0xf0, 0x00, 0xf8, 0x00, 0xfc,
   0x00, 0xfe, 0x00, 0xff, 0x80, 0xf7, 0xc0, 0xe3, 0xe0, 0xd5, 0xf0, 0xb6,
   0xf8, 0xf7, 0xfc, 0xf7, 0xfe, 0xf7, 0xff, 0xff };
