#define video_width 16
#define video_height 16
static unsigned char video_bits[] = {
   0x00, 0x00, 0x00, 0x00, 0x00, 0x00, 0x00, 0x00, 0xfc, 0x07, 0xfc, 0x27,
   0xfc, 0x37, 0xfc, 0x3f, 0xfc, 0x3f, 0xfc, 0x37, 0xfc, 0x27, 0xfc, 0x07,
   0x00, 0x00, 0x00, 0x00, 0x00, 0x00, 0x00, 0x00 };
