#define wifi_width 16
#define wifi_height 16
static unsigned char wifi_bits[] = {
   0x00, 0x00, 0x00, 0x00, 0x00, 0x00, 0xf8, 0x1f, 0xfc, 0x3f, 0x1e, 0x78,
   0x07, 0xe1, 0xf0, 0x1f, 0xf8, 0x1f, 0x10, 0x08, 0x80, 0x01, 0xc0, 0x03,
   0x80, 0x01, 0x00, 0x00, 0x00, 0x00, 0x00, 0x00 };
