#define gps_width 16
#define gps_height 16
static unsigned char gps_bits[] = {
   0x00, 0x00, 0x00, 0x00, 0x00, 0x20, 0x00, 0x1c, 0x00, 0x1e, 0xe0, 0x1f,
   0xf0, 0x1f, 0xfe, 0x0f, 0xf8, 0x07, 0x80, 0x07, 0x80, 0x07, 0x80, 0x03,
   0x80, 0x03, 0x00, 0x01, 0x00, 0x01, 0x00, 0x00 };
