#define lights_width 16
#define lights_height 16
static unsigned char lights_bits[] = {
   0x00, 0x00, 0x80, 0x01, 0x80, 0x01, 0x98, 0x19, 0x98, 0x19, 0x00, 0x00,
   0x80, 0x01, 0xde, 0x7b, 0xde, 0x7b, 0x80, 0x01, 0x00, 0x00, 0x98, 0x19,
   0x98, 0x19, 0x80, 0x01, 0x80, 0x01, 0x00, 0x00 };
