#define noLogging_width 16
#define noLogging_height 16
static unsigned char noLogging_bits[] = {
   0xe0, 0x07, 0xf8, 0x1f, 0x0c, 0x30, 0xc6, 0x78, 0xc6, 0x7c, 0xc3, 0xde,
   0xc3, 0xc7, 0xc3, 0xc3, 0xc3, 0xc1, 0xe3, 0xc0, 0xf3, 0xc0, 0xfe, 0x67,
   0xde, 0x77, 0x1c, 0x30, 0xf8, 0x1f, 0xe0, 0x07 };
