<?xml version="1.0" standalone="no"?>
 <!DOCTYPE svg PUBLIC "-//W3C//DTD SVG 1.1//EN" 
 "http://www.w3.org/Graphics/SVG/1.1/DTD/svg11.dtd"> 
<svg xmlns="http://www.w3.org/2000/svg" version="1.1" 
    width="29.7002cm" height="21.0007cm" viewBox="0 0 116930 82680 ">
<title>SVG Picture created as maxwell-remote-gps-B.Cu.svg date 2018/09/17 23:05:34 </title>
  <desc>Picture generated by PCBNEW </desc>
<g style="fill:#000000; fill-opacity:1;stroke:#000000; stroke-opacity:1;
stroke-linecap:round; stroke-linejoin:round; "
 transform="translate(0 0) scale(1 1)">
</g>
<g style="fill:#000000; fill-opacity:0.0; 
stroke:#000000; stroke-width:-0.000393701; stroke-opacity:1; 
stroke-linecap:round; stroke-linejoin:round;">
</g>
<g style="fill:#000000; fill-opacity:0.0; 
stroke:#000000; stroke-width:0; stroke-opacity:1; 
stroke-linecap:round; stroke-linejoin:round;">
</g>
<g style="fill:#000000; fill-opacity:1.0; 
stroke:#000000; stroke-width:0; stroke-opacity:1; 
stroke-linecap:round; stroke-linejoin:round;">
<polyline style="fill-rule:evenodd;"
points="69350,33405
69350,32539
70216,32539
70216,33405
69350,33405
" /> 
<polyline style="fill-rule:evenodd;"
points="68366,33405
68366,32539
69232,32539
69232,33405
68366,33405
" /> 
<polyline style="fill-rule:evenodd;"
points="67381,33405
67381,32539
68248,32539
68248,33405
67381,33405
" /> 
<circle cx="65748" cy="36862.2" r="295.276" /> 
</g>
<g style="fill:#000000; fill-opacity:1.0; 
stroke:#000000; stroke-width:39.3701; stroke-opacity:1; 
stroke-linecap:round; stroke-linejoin:round;">
</g>
<g style="fill:#000000; fill-opacity:1.0; 
stroke:#000000; stroke-width:0; stroke-opacity:1; 
stroke-linecap:round; stroke-linejoin:round;">
<circle cx="65748" cy="34940.9" r="295.276" /> 
</g>
<g style="fill:#000000; fill-opacity:1.0; 
stroke:#000000; stroke-width:39.3701; stroke-opacity:1; 
stroke-linecap:round; stroke-linejoin:round;">
</g>
<g style="fill:#000000; fill-opacity:1.0; 
stroke:#000000; stroke-width:0; stroke-opacity:1; 
stroke-linecap:round; stroke-linejoin:round;">
<polyline style="fill-rule:evenodd;"
points="62047,33602
61181,33602
61181,32736
62047,32736
62047,33602
" /> 
<polyline style="fill-rule:evenodd;"
points="62047,34586
61181,34586
61181,33720
62047,33720
62047,34586
" /> 
<polyline style="fill-rule:evenodd;"
points="62047,35570
61181,35570
61181,34704
62047,34704
62047,35570
" /> 
<polyline style="fill-rule:evenodd;"
points="62047,36555
61181,36555
61181,35688
62047,35688
62047,36555
" /> 
<polyline style="fill-rule:evenodd;"
points="62047,37539
61181,37539
61181,36673
62047,36673
62047,37539
" /> 
<polyline style="fill-rule:evenodd;"
points="62047,38523
61181,38523
61181,37657
62047,37657
62047,38523
" /> 
<polyline style="fill-rule:evenodd;"
points="62047,39507
61181,39507
61181,38641
62047,38641
62047,39507
" /> 
<polyline style="fill-rule:evenodd;"
points="78799,35688
79665,35688
79665,36555
78799,36555
78799,35688
" /> 
<polyline style="fill-rule:evenodd;"
points="78799,34704
79665,34704
79665,35570
78799,35570
78799,34704
" /> 
<circle cx="66830.7" cy="39271.7" r="393.701" /> 
</g>
<g style="fill:#000000; fill-opacity:1.0; 
stroke:#000000; stroke-width:39.3701; stroke-opacity:1; 
stroke-linecap:round; stroke-linejoin:round;">
</g>
<g style="fill:#000000; fill-opacity:1.0; 
stroke:#000000; stroke-width:0; stroke-opacity:1; 
stroke-linecap:round; stroke-linejoin:round;">
<circle cx="70964.6" cy="39645.7" r="393.701" /> 
</g>
<g style="fill:#000000; fill-opacity:1.0; 
stroke:#000000; stroke-width:39.3701; stroke-opacity:1; 
stroke-linecap:round; stroke-linejoin:round;">
</g>
<g style="fill:#000000; fill-opacity:1.0; 
stroke:#000000; stroke-width:157.48; stroke-opacity:1; 
stroke-linecap:round; stroke-linejoin:round;">
</g>
<g style="fill:#000000; fill-opacity:0.0; 
stroke:#000000; stroke-width:157.48; stroke-opacity:1; 
stroke-linecap:round; stroke-linejoin:round;">
<path d="M66830 39271
L70590 39271
" />
<path d="M70590 39271
L70964 39645
" />
</g> 
</svg>
