<?xml version="1.0" standalone="no"?>
 <!DOCTYPE svg PUBLIC "-//W3C//DTD SVG 1.1//EN" 
 "http://www.w3.org/Graphics/SVG/1.1/DTD/svg11.dtd"> 
<svg xmlns="http://www.w3.org/2000/svg" version="1.1" 
    width="29.7002cm" height="21.0007cm" viewBox="0 0 116930 82680 ">
<title>SVG Picture created as maxwell-remote-gps-B.SilkS.svg date 2018/09/17 23:05:34 </title>
  <desc>Picture generated by PCBNEW </desc>
<g style="fill:#000000; fill-opacity:1;stroke:#000000; stroke-opacity:1;
stroke-linecap:round; stroke-linejoin:round; "
 transform="translate(0 0) scale(1 1)">
</g>
<g style="fill:#000000; fill-opacity:0.0; 
stroke:#000000; stroke-width:-0.000393701; stroke-opacity:1; 
stroke-linecap:round; stroke-linejoin:round;">
</g>
<g style="fill:#000000; fill-opacity:0.0; 
stroke:#000000; stroke-width:47.2441; stroke-opacity:1; 
stroke-linecap:round; stroke-linejoin:round;">
<path d="M66653 31929
L67637 31929
" />
<path d="M66653 32913
L66653 31929
" />
<path d="M70433 32637
L70433 32047
" />
<path d="M70826 32637
L70433 32637
" />
<path d="M67165 32637
L67165 32047
" />
<path d="M66771 32637
L67165 32637
" />
<path d="M70629 32972
L70826 32972
" />
<path d="M70629 33464
L70629 32972
" />
<path d="M66968 33464
L70629 33464
" />
<path d="M66968 32972
L66968 33464
" />
<path d="M66771 32972
L66968 32972
" />
<path d="M70826 33661
L66771 33661
" />
<path d="M70826 32047
L70826 33661
" />
<path d="M66771 32047
L70826 32047
" />
<path d="M66771 33661
L66771 32047
" />
<path d="M64753.9 37131.9 A994.094 994.094 0.0 0 0 66742.1 37131.9 " />
<path d="M66742.1 34671.3 A994.094 994.094 0.0 0 0 64753.9 34671.3 " />
<path d="M66742 34671
L66742 37131
" />
<path d="M64753 34671
L64753 37131
" />
<path d="M62696 40196
L61712 40196
" />
<path d="M62696 39212
L62696 40196
" />
<path d="M60531 32460
L60531 36122
" />
<path d="M61692 32460
L60531 32460
" />
<path d="M61692 32165
L61692 32460
" />
<path d="M60531 39783
L60531 36122
" />
<path d="M61692 39783
L60531 39783
" />
<path d="M61692 40078
L61692 39783
" />
<path d="M62578 32165
L62578 32874
" />
<path d="M62283 32165
L62578 32165
" />
<path d="M62283 32874
L62283 32165
" />
<path d="M62578 32874
L62283 32874
" />
<path d="M62578 39370
L62578 40078
" />
<path d="M62283 39370
L62578 39370
" />
<path d="M62283 40078
L62283 39370
" />
<path d="M62578 40078
L62283 40078
" />
<path d="M62578 33464
L62578 38779
" />
<path d="M62283 33464
L62578 33464
" />
<path d="M62283 38779
L62283 33464
" />
<path d="M62578 38779
L62283 38779
" />
<path d="M62578 32165
L62578 40078
" />
<path d="M60236 32165
L62578 32165
" />
<path d="M60236 40078
L60236 32165
" />
<path d="M62578 40078
L60236 40078
" />
<path d="M80275 33976
L80275 34960
" />
<path d="M79291 33976
L80275 33976
" />
<path d="M79566 36771
L80157 36771
" />
<path d="M79566 37165
L79566 36771
" />
<path d="M79566 34488
L80157 34488
" />
<path d="M79566 34094
L79566 34488
" />
<path d="M79232 36968
L79232 37165
" />
<path d="M78740 36968
L79232 36968
" />
<path d="M78740 34291
L78740 36968
" />
<path d="M79232 34291
L78740 34291
" />
<path d="M79232 34094
L79232 34291
" />
<path d="M78543 37165
L78543 34094
" />
<path d="M80157 37165
L78543 37165
" />
<path d="M80157 34094
L80157 37165
" />
<path d="M78543 34094
L80157 34094
" />
</g>
<g style="fill:#000000; fill-opacity:0.0; 
stroke:#000000; stroke-width:59.0551; stroke-opacity:1; 
stroke-linecap:round; stroke-linejoin:round;">
<path d="M68930 33937
L68930 34219
L68949 34275
L68986 34312
L69042 34331
L69080 34331
" />
<path d="M68761 33975
L68742 33956
L68705 33937
L68611 33937
L68574 33956
L68555 33975
L68536 34012
L68536 34050
L68555 34106
L68780 34331
L68536 34331
" />
<path d="M64350 35714
L64538 35714
" />
<path d="M64144 35582
L64350 35714
L64144 35845
" />
<path d="M64538 36182
L64538 35957
" />
<path d="M64538 36070
L64144 36070
L64200 36032
L64238 35995
L64257 35957
" />
<path d="M62776 35990
L63057 35990
L63113 35972
L63151 35934
L63170 35878
L63170 35840
" />
<path d="M63170 36384
L63170 36159
" />
<path d="M63170 36272
L62776 36272
L62832 36234
L62870 36197
L62889 36159
" />
<path d="M78023 35320
L78041 35376
L78060 35395
L78098 35414
L78154 35414
L78191 35395
L78210 35376
L78229 35339
L78229 35189
L77835 35189
L77835 35320
L77854 35358
L77873 35376
L77910 35395
L77948 35395
L77985 35376
L78004 35358
L78023 35320
L78023 35189
" />
<path d="M77835 35526
L77835 35751
" />
<path d="M78229 35639
L77835 35639
" />
<path d="M78229 36089
L78229 35864
" />
<path d="M78229 35976
L77835 35976
L77891 35939
L77929 35901
L77948 35864
" />
</g> 
</svg>
