<?xml version="1.0" standalone="no"?>
 <!DOCTYPE svg PUBLIC "-//W3C//DTD SVG 1.1//EN" 
 "http://www.w3.org/Graphics/SVG/1.1/DTD/svg11.dtd"> 
<svg xmlns="http://www.w3.org/2000/svg" version="1.1" 
    width="29.7002cm" height="21.0007cm" viewBox="0 0 116930 82680 ">
<title>SVG Picture created as maxwell-remote-gps-F.SilkS.svg date 2018/09/17 23:05:34 </title>
  <desc>Picture generated by PCBNEW </desc>
<g style="fill:#000000; fill-opacity:1;stroke:#000000; stroke-opacity:1;
stroke-linecap:round; stroke-linejoin:round; "
 transform="translate(0 0) scale(1 1)">
</g>
<g style="fill:#000000; fill-opacity:0.0; 
stroke:#000000; stroke-width:-0.000393701; stroke-opacity:1; 
stroke-linecap:round; stroke-linejoin:round;">
</g>
<g style="fill:#000000; fill-opacity:0.0; 
stroke:#000000; stroke-width:150; stroke-opacity:1; 
stroke-linecap:round; stroke-linejoin:round;">
<path d="M71653 39173
L71653 36023
" />
<path d="M77953 39173
L71653 39173
" />
<path d="M77953 38385
L77953 39173
" />
<path d="M77953 32873
L77953 38385
" />
<path d="M71653 32873
L77953 32873
" />
<path d="M71653 36023
L71653 32873
" />
</g>
<g style="fill:#000000; fill-opacity:0.0; 
stroke:#000000; stroke-width:59.0551; stroke-opacity:1; 
stroke-linecap:round; stroke-linejoin:round;">
<path d="M67588 35039
L67165 35039
" />
<path d="M67588 38868
L69419 38868
" />
<path d="M67588 34950
L69419 34950
" />
<path d="M67588 38868
L67588 38740
" />
<path d="M69419 38868
L69419 38740
" />
<path d="M69419 34950
L69419 35078
" />
<path d="M67588 34950
L67588 35039
" />
<path d="M69429 39616
L68956 39616
" />
<path d="M68956 38927
L69429 38927
" />
<path d="M72086 32824
L71614 32824
" />
<path d="M71614 32135
L72086 32135
" />
<path d="M67854 34793
L67381 34793
" />
<path d="M67381 34104
L67854 34104
" />
<path d="M64616 36968
L64616 37440
" />
<path d="M63927 37440
L63927 36968
" />
<path d="M63927 34685
L63927 34212
" />
<path d="M64616 34212
L64616 34685
" />
</g>
<g style="fill:#000000; fill-opacity:0.0; 
stroke:#000000; stroke-width:120; stroke-opacity:1; 
stroke-linecap:round; stroke-linejoin:round;">
<path d="M73952 39238
L73952 39723
L73980 39780
L74009 39809
L74066 39838
L74180 39838
L74237 39809
L74266 39780
L74294 39723
L74294 39238
" />
<path d="M74552 39295
L74580 39266
L74637 39238
L74780 39238
L74837 39266
L74866 39295
L74894 39352
L74894 39409
L74866 39495
L74523 39838
L74894 39838
" />
<path d="M72146 32437
L71946 32437
" />
<path d="M71946 32752
L71946 32152
L72231 32152
" />
<path d="M72774 32180
L72717 32152
L72631 32152
L72546 32180
L72488 32237
L72460 32294
L72431 32409
L72431 32494
L72460 32609
L72488 32666
L72546 32723
L72631 32752
L72688 32752
L72774 32723
L72803 32694
L72803 32494
L72688 32494
" />
<path d="M73060 32752
L73060 32152
L73288 32152
L73346 32180
L73374 32209
L73403 32266
L73403 32352
L73374 32409
L73346 32437
L73288 32466
L73060 32466
" />
<path d="M73660 32752
L73660 32152
L73860 32580
L74060 32152
L74060 32752
" />
<path d="M74346 32752
L74346 32152
L74546 32580
L74746 32152
L74746 32752
" />
<path d="M75146 32152
L75260 32152
L75317 32180
L75374 32237
L75403 32352
L75403 32552
L75374 32666
L75317 32723
L75260 32752
L75146 32752
L75088 32723
L75031 32666
L75003 32552
L75003 32352
L75031 32237
L75088 32180
L75146 32152
" />
<path d="M75660 32752
L75660 32152
L75888 32152
L75946 32180
L75974 32209
L76003 32266
L76003 32352
L75974 32409
L75946 32437
L75888 32466
L75660 32466
" />
<path d="M76231 32580
L76517 32580
" />
<path d="M76174 32752
L76374 32152
L76574 32752
" />
<path d="M77031 32152
L76917 32152
L76860 32180
L76831 32209
L76774 32294
L76746 32409
L76746 32637
L76774 32694
L76803 32723
L76860 32752
L76974 32752
L77031 32723
L77060 32694
L77088 32637
L77088 32494
L77060 32437
L77031 32409
L76974 32380
L76860 32380
L76803 32409
L76774 32437
L76746 32494
" />
<path d="M77688 32694
L77660 32723
L77574 32752
L77517 32752
L77431 32723
L77374 32666
L77346 32609
L77317 32494
L77317 32409
L77346 32294
L77374 32237
L77431 32180
L77517 32152
L77574 32152
L77660 32180
L77688 32209
" />
<path d="M72854 33735
L72511 33735
" />
<path d="M72683 33735
L72683 33135
L72626 33220
L72568 33277
L72511 33306
" />
</g>
<g style="fill:#000000; fill-opacity:0.0; 
stroke:#000000; stroke-width:59.0551; stroke-opacity:1; 
stroke-linecap:round; stroke-linejoin:round;">
<path d="M68203 34371
L68203 34689
L68222 34727
L68241 34745
L68278 34764
L68353 34764
L68391 34745
L68410 34727
L68428 34689
L68428 34371
" />
<path d="M68822 34764
L68597 34764
" />
<path d="M68710 34764
L68710 34371
L68672 34427
L68635 34464
L68597 34483
" />
<path d="M69127 38622
L68996 38435
" />
<path d="M68902 38622
L68902 38229
L69052 38229
L69089 38248
L69108 38266
L69127 38304
L69127 38360
L69108 38398
L69089 38416
L69052 38435
L68902 38435
" />
<path d="M69502 38622
L69277 38622
" />
<path d="M69389 38622
L69389 38229
L69352 38285
L69314 38323
L69277 38341
" />
<path d="M71784 31794
L71766 31812
L71709 31831
L71672 31831
L71616 31812
L71578 31775
L71559 31737
L71541 31662
L71541 31606
L71559 31531
L71578 31494
L71616 31456
L71672 31437
L71709 31437
L71766 31456
L71784 31475
" />
<path d="M72122 31569
L72122 31831
" />
<path d="M72028 31419
L71934 31700
L72178 31700
" />
<path d="M67552 33762
L67533 33781
L67477 33800
L67440 33800
L67383 33781
L67346 33743
L67327 33706
L67308 33631
L67308 33575
L67327 33500
L67346 33462
L67383 33425
L67440 33406
L67477 33406
L67533 33425
L67552 33443
" />
<path d="M67683 33406
L67927 33406
L67796 33556
L67852 33556
L67889 33575
L67908 33593
L67927 33631
L67927 33725
L67908 33762
L67889 33781
L67852 33800
L67739 33800
L67702 33781
L67683 33762
" />
<path d="M63585 37270
L63604 37289
L63622 37345
L63622 37382
L63604 37439
L63566 37476
L63529 37495
L63454 37514
L63398 37514
L63323 37495
L63285 37476
L63248 37439
L63229 37382
L63229 37345
L63248 37289
L63266 37270
" />
<path d="M63266 37120
L63248 37101
L63229 37064
L63229 36970
L63248 36932
L63266 36914
L63304 36895
L63341 36895
L63398 36914
L63622 37139
L63622 36895
" />
<path d="M65239 34514
L65257 34533
L65276 34589
L65276 34626
L65257 34683
L65220 34720
L65182 34739
L65107 34758
L65051 34758
L64976 34739
L64939 34720
L64901 34683
L64882 34626
L64882 34589
L64901 34533
L64920 34514
" />
<path d="M65276 34139
L65276 34364
" />
<path d="M65276 34251
L64882 34251
L64939 34289
L64976 34326
L64995 34364
" />
</g> 
</svg>
