<?xml version="1.0" standalone="no"?>
 <!DOCTYPE svg PUBLIC "-//W3C//DTD SVG 1.1//EN" 
 "http://www.w3.org/Graphics/SVG/1.1/DTD/svg11.dtd"> 
<svg xmlns="http://www.w3.org/2000/svg" version="1.1" 
    width="29.7002cm" height="21.0007cm" viewBox="0 0 116930 82680 ">
<title>SVG Picture created as maxwell-remote-gps-F.Mask.svg date 2018/09/17 23:05:34 </title>
  <desc>Picture generated by PCBNEW </desc>
<g style="fill:#000000; fill-opacity:1;stroke:#000000; stroke-opacity:1;
stroke-linecap:round; stroke-linejoin:round; "
 transform="translate(0 0) scale(1 1)">
</g>
<g style="fill:#000000; fill-opacity:0.0; 
stroke:#000000; stroke-width:-0.000393701; stroke-opacity:1; 
stroke-linecap:round; stroke-linejoin:round;">
</g>
<g style="fill:#000000; fill-opacity:1.0; 
stroke:#000000; stroke-width:0; stroke-opacity:1; 
stroke-linecap:round; stroke-linejoin:round;">
<polyline style="fill-rule:evenodd;"
points="69959,39547
68426,39547
68426,38995
69959,38995
69959,39547
" /> 
<polyline style="fill-rule:evenodd;"
points="62067,39527
61161,39527
61161,32716
62067,32716
62067,39527
" /> 
<polyline style="fill-rule:evenodd;"
points="78366,38897
77539,38897
77539,38463
78366,38463
78366,38897
" /> 
<polyline style="fill-rule:evenodd;"
points="72066,38897
71239,38897
71239,38463
72066,38463
72066,38897
" /> 
<polyline style="fill-rule:evenodd;"
points="69862,38671
69389,38671
69389,35147
69862,35147
69862,38671
" /> 
<polyline style="fill-rule:evenodd;"
points="67618,38671
67145,38671
67145,35147
67618,35147
67618,38671
" /> 
<polyline style="fill-rule:evenodd;"
points="72066,38307
71239,38307
71239,37873
72066,37873
72066,38307
" /> 
<polyline style="fill-rule:evenodd;"
points="64547,37970
63995,37970
63995,36438
64547,36438
64547,37970
" /> 
<polyline style="fill-rule:evenodd;"
points="72066,37716
71239,37716
71239,37282
72066,37282
72066,37716
" /> 
<polyline style="fill-rule:evenodd;"
points="65840,36558
65897,36582
65949,36617
65992,36661
66027,36712
66051,36770
66063,36831
66063,36893
66051,36954
66027,37011
65992,37063
65949,37107
65897,37141
65840,37165
65779,37177
65716,37177
65656,37165
65598,37141
65547,37107
65503,37063
65468,37011
65444,36954
65432,36893
65432,36831
65444,36770
65468,36712
65503,36661
65547,36617
65598,36582
65656,36558
65716,36546
65779,36546
65840,36558
" /> 
<polyline style="fill-rule:evenodd;"
points="72066,37126
71239,37126
71239,36692
72066,36692
72066,37126
" /> 
<polyline style="fill-rule:evenodd;"
points="79685,36575
78779,36575
78779,34684
79685,34684
79685,36575
" /> 
<polyline style="fill-rule:evenodd;"
points="72066,36535
71239,36535
71239,36101
72066,36101
72066,36535
" /> 
<polyline style="fill-rule:evenodd;"
points="72066,35945
71239,35945
71239,35511
72066,35511
72066,35945
" /> 
<polyline style="fill-rule:evenodd;"
points="78366,35945
77539,35945
77539,35511
78366,35511
78366,35945
" /> 
<polyline style="fill-rule:evenodd;"
points="72066,35354
71239,35354
71239,34920
72066,34920
72066,35354
" /> 
<polyline style="fill-rule:evenodd;"
points="65840,34637
65897,34661
65949,34695
65992,34739
66027,34791
66051,34848
66063,34909
66063,34972
66051,35032
66027,35090
65992,35141
65949,35185
65897,35220
65840,35244
65779,35256
65716,35256
65656,35244
65598,35220
65547,35185
65503,35141
65468,35090
65444,35032
65432,34972
65432,34909
65444,34848
65468,34791
65503,34739
65547,34695
65598,34661
65656,34637
65716,34625
65779,34625
65840,34637
" /> 
<polyline style="fill-rule:evenodd;"
points="64547,35214
63995,35214
63995,33682
64547,33682
64547,35214
" /> 
<polyline style="fill-rule:evenodd;"
points="72066,34764
71239,34764
71239,34330
72066,34330
72066,34764
" /> 
<polyline style="fill-rule:evenodd;"
points="68384,34724
66851,34724
66851,34172
68384,34172
68384,34724
" /> 
<polyline style="fill-rule:evenodd;"
points="72066,34173
71239,34173
71239,33739
72066,33739
72066,34173
" /> 
<polyline style="fill-rule:evenodd;"
points="72066,33583
71239,33583
71239,33149
72066,33149
72066,33583
" /> 
<polyline style="fill-rule:evenodd;"
points="78366,33583
77539,33583
77539,33149
78366,33149
78366,33583
" /> 
<polyline style="fill-rule:evenodd;"
points="70236,33425
67361,33425
67361,32519
70236,32519
70236,33425
" /> 
<polyline style="fill-rule:evenodd;"
points="72616,32756
71084,32756
71084,32204
72616,32204
72616,32756
" /> 
</g> 
</svg>
