<?xml version="1.0" standalone="no"?>
 <!DOCTYPE svg PUBLIC "-//W3C//DTD SVG 1.1//EN" 
 "http://www.w3.org/Graphics/SVG/1.1/DTD/svg11.dtd"> 
<svg xmlns="http://www.w3.org/2000/svg" version="1.1" 
    width="29.7002cm" height="21.0007cm" viewBox="0 0 116930 82680 ">
<title>SVG Picture created as maxwell-remote-gps-F.Cu.svg date 2018/09/17 23:05:34 </title>
  <desc>Picture generated by PCBNEW </desc>
<g style="fill:#000000; fill-opacity:1;stroke:#000000; stroke-opacity:1;
stroke-linecap:round; stroke-linejoin:round; "
 transform="translate(0 0) scale(1 1)">
</g>
<g style="fill:#000000; fill-opacity:0.0; 
stroke:#000000; stroke-width:-0.000393701; stroke-opacity:1; 
stroke-linecap:round; stroke-linejoin:round;">
</g>
<g style="fill:#000000; fill-opacity:0.0; 
stroke:#000000; stroke-width:0; stroke-opacity:1; 
stroke-linecap:round; stroke-linejoin:round;">
</g>
<g style="fill:#000000; fill-opacity:1.0; 
stroke:#000000; stroke-width:0; stroke-opacity:1; 
stroke-linecap:round; stroke-linejoin:round;">
<polyline style="fill-rule:evenodd;"
points="69350,33405
69350,32539
70216,32539
70216,33405
69350,33405
" /> 
<polyline style="fill-rule:evenodd;"
points="68366,33405
68366,32539
69232,32539
69232,33405
68366,33405
" /> 
<polyline style="fill-rule:evenodd;"
points="67381,33405
67381,32539
68248,32539
68248,33405
67381,33405
" /> 
<circle cx="65748" cy="36862.2" r="295.276" /> 
</g>
<g style="fill:#000000; fill-opacity:1.0; 
stroke:#000000; stroke-width:39.3701; stroke-opacity:1; 
stroke-linecap:round; stroke-linejoin:round;">
</g>
<g style="fill:#000000; fill-opacity:1.0; 
stroke:#000000; stroke-width:0; stroke-opacity:1; 
stroke-linecap:round; stroke-linejoin:round;">
<circle cx="65748" cy="34940.9" r="295.276" /> 
</g>
<g style="fill:#000000; fill-opacity:1.0; 
stroke:#000000; stroke-width:39.3701; stroke-opacity:1; 
stroke-linecap:round; stroke-linejoin:round;">
</g>
<g style="fill:#000000; fill-opacity:1.0; 
stroke:#000000; stroke-width:0; stroke-opacity:1; 
stroke-linecap:round; stroke-linejoin:round;">
<polyline style="fill-rule:evenodd;"
points="77559,33563
77559,33169
78346,33169
78346,33563
77559,33563
" /> 
<polyline style="fill-rule:evenodd;"
points="77559,35925
77559,35531
78346,35531
78346,35925
77559,35925
" /> 
<polyline style="fill-rule:evenodd;"
points="77559,38877
77559,38483
78346,38483
78346,38877
77559,38877
" /> 
<polyline style="fill-rule:evenodd;"
points="71259,38877
71259,38483
72046,38483
72046,38877
71259,38877
" /> 
<polyline style="fill-rule:evenodd;"
points="71259,38287
71259,37893
72046,37893
72046,38287
71259,38287
" /> 
<polyline style="fill-rule:evenodd;"
points="71259,37696
71259,37302
72046,37302
72046,37696
71259,37696
" /> 
<polyline style="fill-rule:evenodd;"
points="71259,37106
71259,36712
72046,36712
72046,37106
71259,37106
" /> 
<polyline style="fill-rule:evenodd;"
points="71259,36515
71259,36121
72046,36121
72046,36515
71259,36515
" /> 
<polyline style="fill-rule:evenodd;"
points="71259,35925
71259,35531
72046,35531
72046,35925
71259,35925
" /> 
<polyline style="fill-rule:evenodd;"
points="71259,35334
71259,34940
72046,34940
72046,35334
71259,35334
" /> 
<polyline style="fill-rule:evenodd;"
points="71259,34744
71259,34350
72046,34350
72046,34744
71259,34744
" /> 
<polyline style="fill-rule:evenodd;"
points="71259,34153
71259,33759
72046,33759
72046,34153
71259,34153
" /> 
<polyline style="fill-rule:evenodd;"
points="71259,33563
71259,33169
72046,33169
72046,33563
71259,33563
" /> 
<polyline style="fill-rule:evenodd;"
points="69409,35324
69409,35167
69842,35167
69842,35324
69409,35324
" /> 
<polyline style="fill-rule:evenodd;"
points="69409,35580
69409,35423
69842,35423
69842,35580
69409,35580
" /> 
<polyline style="fill-rule:evenodd;"
points="69409,35836
69409,35679
69842,35679
69842,35836
69409,35836
" /> 
<polyline style="fill-rule:evenodd;"
points="69409,36092
69409,35935
69842,35935
69842,36092
69409,36092
" /> 
<polyline style="fill-rule:evenodd;"
points="69409,36348
69409,36190
69842,36190
69842,36348
69409,36348
" /> 
<polyline style="fill-rule:evenodd;"
points="69409,36604
69409,36446
69842,36446
69842,36604
69409,36604
" /> 
<polyline style="fill-rule:evenodd;"
points="69409,36860
69409,36702
69842,36702
69842,36860
69409,36860
" /> 
<polyline style="fill-rule:evenodd;"
points="69409,37116
69409,36958
69842,36958
69842,37116
69409,37116
" /> 
<polyline style="fill-rule:evenodd;"
points="69409,37372
69409,37214
69842,37214
69842,37372
69409,37372
" /> 
<polyline style="fill-rule:evenodd;"
points="69409,37627
69409,37470
69842,37470
69842,37627
69409,37627
" /> 
<polyline style="fill-rule:evenodd;"
points="69409,37883
69409,37726
69842,37726
69842,37883
69409,37883
" /> 
<polyline style="fill-rule:evenodd;"
points="69409,38139
69409,37982
69842,37982
69842,38139
69409,38139
" /> 
<polyline style="fill-rule:evenodd;"
points="69409,38395
69409,38238
69842,38238
69842,38395
69409,38395
" /> 
<polyline style="fill-rule:evenodd;"
points="69409,38651
69409,38494
69842,38494
69842,38651
69409,38651
" /> 
<polyline style="fill-rule:evenodd;"
points="67165,38651
67165,38494
67598,38494
67598,38651
67165,38651
" /> 
<polyline style="fill-rule:evenodd;"
points="67165,38395
67165,38238
67598,38238
67598,38395
67165,38395
" /> 
<polyline style="fill-rule:evenodd;"
points="67165,38139
67165,37982
67598,37982
67598,38139
67165,38139
" /> 
<polyline style="fill-rule:evenodd;"
points="67165,37883
67165,37726
67598,37726
67598,37883
67165,37883
" /> 
<polyline style="fill-rule:evenodd;"
points="67165,37627
67165,37470
67598,37470
67598,37627
67165,37627
" /> 
<polyline style="fill-rule:evenodd;"
points="67165,37372
67165,37214
67598,37214
67598,37372
67165,37372
" /> 
<polyline style="fill-rule:evenodd;"
points="67165,37116
67165,36958
67598,36958
67598,37116
67165,37116
" /> 
<polyline style="fill-rule:evenodd;"
points="67165,36860
67165,36702
67598,36702
67598,36860
67165,36860
" /> 
<polyline style="fill-rule:evenodd;"
points="67165,36604
67165,36446
67598,36446
67598,36604
67165,36604
" /> 
<polyline style="fill-rule:evenodd;"
points="67165,36348
67165,36190
67598,36190
67598,36348
67165,36348
" /> 
<polyline style="fill-rule:evenodd;"
points="67165,36092
67165,35935
67598,35935
67598,36092
67165,36092
" /> 
<polyline style="fill-rule:evenodd;"
points="67165,35836
67165,35679
67598,35679
67598,35836
67165,35836
" /> 
<polyline style="fill-rule:evenodd;"
points="67165,35580
67165,35423
67598,35423
67598,35580
67165,35580
" /> 
<polyline style="fill-rule:evenodd;"
points="67165,35324
67165,35167
67598,35167
67598,35324
67165,35324
" /> 
<polyline style="fill-rule:evenodd;"
points="68446,39527
68446,39015
69151,39015
69151,39527
68446,39527
" /> 
<polyline style="fill-rule:evenodd;"
points="69234,39527
69234,39015
69938,39015
69938,39527
69234,39527
" /> 
<polyline style="fill-rule:evenodd;"
points="62047,33602
61181,33602
61181,32736
62047,32736
62047,33602
" /> 
<polyline style="fill-rule:evenodd;"
points="62047,34586
61181,34586
61181,33720
62047,33720
62047,34586
" /> 
<polyline style="fill-rule:evenodd;"
points="62047,35570
61181,35570
61181,34704
62047,34704
62047,35570
" /> 
<polyline style="fill-rule:evenodd;"
points="62047,36555
61181,36555
61181,35688
62047,35688
62047,36555
" /> 
<polyline style="fill-rule:evenodd;"
points="62047,37539
61181,37539
61181,36673
62047,36673
62047,37539
" /> 
<polyline style="fill-rule:evenodd;"
points="62047,38523
61181,38523
61181,37657
62047,37657
62047,38523
" /> 
<polyline style="fill-rule:evenodd;"
points="62047,39507
61181,39507
61181,38641
62047,38641
62047,39507
" /> 
<polyline style="fill-rule:evenodd;"
points="71104,32736
71104,32224
71809,32224
71809,32736
71104,32736
" /> 
<polyline style="fill-rule:evenodd;"
points="71891,32736
71891,32224
72596,32224
72596,32736
71891,32736
" /> 
<polyline style="fill-rule:evenodd;"
points="66872,34704
66872,34192
67576,34192
67576,34704
66872,34704
" /> 
<polyline style="fill-rule:evenodd;"
points="67659,34704
67659,34192
68364,34192
68364,34704
67659,34704
" /> 
<polyline style="fill-rule:evenodd;"
points="64527,37950
64015,37950
64015,37246
64527,37246
64527,37950
" /> 
<polyline style="fill-rule:evenodd;"
points="64527,37163
64015,37163
64015,36458
64527,36458
64527,37163
" /> 
<polyline style="fill-rule:evenodd;"
points="64015,33702
64527,33702
64527,34407
64015,34407
64015,33702
" /> 
<polyline style="fill-rule:evenodd;"
points="64015,34490
64527,34490
64527,35194
64015,35194
64015,34490
" /> 
<polyline style="fill-rule:evenodd;"
points="78799,35688
79665,35688
79665,36555
78799,36555
78799,35688
" /> 
<polyline style="fill-rule:evenodd;"
points="78799,34704
79665,34704
79665,35570
78799,35570
78799,34704
" /> 
<circle cx="66830.7" cy="39271.7" r="393.701" /> 
</g>
<g style="fill:#000000; fill-opacity:1.0; 
stroke:#000000; stroke-width:39.3701; stroke-opacity:1; 
stroke-linecap:round; stroke-linejoin:round;">
</g>
<g style="fill:#000000; fill-opacity:1.0; 
stroke:#000000; stroke-width:0; stroke-opacity:1; 
stroke-linecap:round; stroke-linejoin:round;">
<circle cx="70964.6" cy="39645.7" r="393.701" /> 
</g>
<g style="fill:#000000; fill-opacity:1.0; 
stroke:#000000; stroke-width:39.3701; stroke-opacity:1; 
stroke-linecap:round; stroke-linejoin:round;">
</g>
<g style="fill:#000000; fill-opacity:1.0; 
stroke:#000000; stroke-width:157.48; stroke-opacity:1; 
stroke-linecap:round; stroke-linejoin:round;">
</g>
<g style="fill:#000000; fill-opacity:0.0; 
stroke:#000000; stroke-width:157.48; stroke-opacity:1; 
stroke-linecap:round; stroke-linejoin:round;">
<path d="M63481 34842
L61807 33169
" />
<path d="M64271 34842
L63481 34842
" />
<path d="M61807 33169
L61614 33169
" />
<path d="M67903 37293
L67381 37293
" />
<path d="M68208 39601
L68208 37598
" />
<path d="M70043 39700
L68308 39700
" />
<path d="M68208 37598
L67903 37293
" />
<path d="M68308 39700
L68208 39601
" />
<path d="M70043 39700
L71814 39700
" />
<path d="M71814 39700
L72539 38976
" />
<path d="M72539 37795
L72244 37500
" />
<path d="M72244 37500
L71555 37500
" />
<path d="M69251 36781
L69094 36624
" />
<path d="M69625 36781
L69251 36781
" />
<path d="M69094 34744
L69586 34251
" />
<path d="M69094 36624
L69094 34744
" />
<path d="M69882 34547
L69586 34251
" />
<path d="M70112 39631
L70043 39700
" />
<path d="M70110 36964
L70110 37576
" />
<path d="M69625 36781
L69927 36781
" />
<path d="M70112 37578
L70112 39631
" />
<path d="M70110 37576
L70112 37578
" />
<path d="M69927 36781
L70110 36964
" />
<path d="M71653 34547
L70866 34547
" />
<path d="M70866 34547
L69882 34547
" />
<path d="M72340 32480
L72440 32580
" />
<path d="M72244 32480
L72340 32480
" />
<path d="M72440 34071
L71964 34547
" />
<path d="M72440 32580
L72440 34071
" />
<path d="M71964 34547
L71555 34547
" />
<path d="M72539 38680
L72539 38681
" />
<path d="M77953 38680
L72539 38680
" />
<path d="M72539 38976
L72539 38681
" />
<path d="M72539 38681
L72539 37795
" />
<path d="M77953 38326
L77952 38325
" />
<path d="M77953 38680
L77953 38326
" />
<path d="M77952 38325
L77952 35728
" />
<path d="M77952 35728
L77755 35728
" />
<path d="M77755 35728
L78248 36220
" />
<path d="M78248 36220
L79232 36220
" />
<path d="M78639 33366
L79921 34648
" />
<path d="M77953 33366
L78639 33366
" />
<path d="M79921 35626
L79425 36122
" />
<path d="M79921 34648
L79921 35626
" />
<path d="M79425 36122
L79133 36122
" />
<path d="M69586 34251
L69783 34055
" />
<path d="M69783 34055
L69783 32972
" />
<path d="M69740 32338
L69783 32381
" />
<path d="M69783 32381
L69783 32972
" />
<path d="M68011 34316
L67125 33430
" />
<path d="M67270 32338
L69740 32338
" />
<path d="M67125 32483
L67270 32338
" />
<path d="M68011 34448
L68011 34316
" />
<path d="M67125 33430
L67125 32483
" />
<path d="M72717 33366
L72244 32893
" />
<path d="M77953 33366
L72717 33366
" />
<path d="M72244 32893
L72244 32480
" />
<path d="M67381 38572
L67381 38720
" />
<path d="M67381 38720
L66830 39271
" />
<path d="M64271 35352
L64271 34842
" />
<path d="M63681 37931
L63681 37303
" />
<path d="M66802 37293
L65820 38275
" />
<path d="M64025 38275
L63681 37931
" />
<path d="M64271 36712
L64271 35352
" />
<path d="M65820 38275
L64025 38275
" />
<path d="M67381 37293
L66802 37293
" />
<path d="M63681 37303
L64271 36712
" />
<path d="M71653 35137
L79232 35137
" />
<path d="M79232 35137
L79232 35137
" />
<path d="M67381 36525
L66742 36525
" />
<path d="M66742 36525
L65748 35531
" />
<path d="M65748 35531
L65748 34940
" />
<path d="M65748 34940
L64862 34055
" />
<path d="M64862 34055
L64271 34055
" />
<path d="M67381 36781
L65777 36781
" />
<path d="M65777 36781
L65748 36811
" />
<path d="M65748 36811
L64960 37598
" />
<path d="M64960 37598
L64370 37598
" />
<path d="M67381 37037
L67755 37037
" />
<path d="M67771 37021
L67755 37037
" />
<path d="M67755 36269
L67771 36285
" />
<path d="M67771 36285
L67771 37021
" />
<path d="M67381 36269
L67755 36269
" />
<path d="M68003 37037
L68799 37832
" />
<path d="M67755 37037
L68003 37037
" />
<path d="M68799 38858
L68799 39271
" />
<path d="M68799 37832
L68799 38858
" />
<path d="M66714 34448
L64746 32480
" />
<path d="M67224 34448
L66714 34448
" />
<path d="M64746 32480
L61122 32480
" />
<path d="M61122 32480
L60925 32677
" />
<path d="M60925 34055
L61023 34153
" />
<path d="M60925 32677
L60925 34055
" />
<path d="M61023 34153
L61614 34153
" />
<path d="M67007 36269
L66830 36092
" />
<path d="M67381 36269
L67007 36269
" />
<path d="M66830 36092
L66830 34744
" />
<path d="M66830 34744
L67125 34448
" />
<path d="M71653 33012
L71456 32815
" />
<path d="M71653 33366
L71653 33012
" />
<path d="M71456 32815
L71456 32381
" />
<path d="M64746 32480
L66437 32480
" />
<path d="M66437 32480
L66830 32086
" />
<path d="M66830 32086
L70964 32086
" />
<path d="M70964 32086
L71358 32480
" />
<path d="M63385 37992
L63385 36614
" />
<path d="M63921 38527
L63385 37992
" />
<path d="M62992 36220
L61614 36220
" />
<path d="M65924 38527
L63921 38527
" />
<path d="M66647 37805
L65924 38527
" />
<path d="M63385 36614
L62992 36220
" />
<path d="M67381 37805
L66647 37805
" />
<path d="M63582 38779
L62992 38188
" />
<path d="M62992 37598
L62598 37204
" />
<path d="M62992 38188
L62992 37598
" />
<path d="M66029 38779
L63582 38779
" />
<path d="M67381 38061
L66747 38061
" />
<path d="M62598 37204
L61614 37204
" />
<path d="M66747 38061
L66029 38779
" />
<path d="M62204 38090
L61614 38090
" />
<path d="M66090 39074
L63385 39074
" />
<path d="M66847 38316
L66090 39074
" />
<path d="M63385 39074
L62401 38090
" />
<path d="M62401 38090
L62204 38090
" />
<path d="M67381 38316
L66847 38316
" />
<path d="M67755 37549
L67956 37749
" />
<path d="M67102 39838
L66558 39838
" />
<path d="M67956 38984
L67102 39838
" />
<path d="M67956 37749
L67956 38984
" />
<path d="M62204 39074
L61614 39074
" />
<path d="M67381 37549
L67755 37549
" />
<path d="M66090 39370
L62893 39370
" />
<path d="M66558 39838
L66090 39370
" />
<path d="M62598 39074
L62204 39074
" />
<path d="M62893 39370
L62598 39074
" />
<path d="M69586 39271
L69586 38858
" />
<path d="M69586 38858
L69586 38582
" />
<path d="M71336 38090
L70614 37367
" />
<path d="M70614 36755
L70127 36269
" />
<path d="M71653 38090
L71336 38090
" />
<path d="M70614 37367
L70614 36755
" />
<path d="M70000 36269
L69625 36269
" />
<path d="M70127 36269
L70000 36269
" />
<path d="M70027 36525
L70362 36860
" />
<path d="M70374 37484
L70374 38188
" />
<path d="M69625 36525
L70027 36525
" />
<path d="M70374 38188
L70866 38681
" />
<path d="M70866 38681
L71653 38681
" />
<path d="M70362 36860
L70362 37472
" />
<path d="M70362 37472
L70374 37484
" />
<path d="M67381 36013
L68120 36013
" />
<path d="M68120 36013
L68799 35334
" />
<path d="M68799 35334
L68799 32972
" />
<path d="M67814 33562
L67814 32972
" />
<path d="M67381 35757
L67755 35757
" />
<path d="M67755 35757
L68537 34976
" />
<path d="M68537 34976
L68537 34054
" />
<path d="M68537 34054
L68439 33956
" />
<path d="M68439 33956
L68208 33956
" />
<path d="M68208 33956
L67814 33562
" />
<path d="M70859 35246
L71243 35629
" />
<path d="M69625 35246
L70859 35246
" />
<path d="M71243 35629
L71653 35629
" />
<path d="M70000 35501
L70718 36220
" />
<path d="M69625 35501
L70000 35501
" />
<path d="M70718 36220
L71653 36220
" />
</g> 
</svg>
