<?xml version="1.0" standalone="no"?>
 <!DOCTYPE svg PUBLIC "-//W3C//DTD SVG 1.1//EN" 
 "http://www.w3.org/Graphics/SVG/1.1/DTD/svg11.dtd"> 
<svg xmlns="http://www.w3.org/2000/svg" version="1.1" 
    width="29.7002cm" height="21.0007cm" viewBox="0 0 116930 82680 ">
<title>SVG Picture created as maxwell-remote-gps-F.Paste.svg date 2018/09/17 23:05:34 </title>
  <desc>Picture generated by PCBNEW </desc>
<g style="fill:#000000; fill-opacity:1;stroke:#000000; stroke-opacity:1;
stroke-linecap:round; stroke-linejoin:round; "
 transform="translate(0 0) scale(1 1)">
</g>
<g style="fill:#000000; fill-opacity:0.0; 
stroke:#000000; stroke-width:-0.000393701; stroke-opacity:1; 
stroke-linecap:round; stroke-linejoin:round;">
</g>
<g style="fill:#000000; fill-opacity:0.0; 
stroke:#000000; stroke-width:0; stroke-opacity:1; 
stroke-linecap:round; stroke-linejoin:round;">
</g>
<g style="fill:#000000; fill-opacity:1.0; 
stroke:#000000; stroke-width:0; stroke-opacity:1; 
stroke-linecap:round; stroke-linejoin:round;">
<polyline style="fill-rule:evenodd;"
points="77559,33563
77559,33169
78346,33169
78346,33563
77559,33563
" /> 
<polyline style="fill-rule:evenodd;"
points="77559,35925
77559,35531
78346,35531
78346,35925
77559,35925
" /> 
<polyline style="fill-rule:evenodd;"
points="77559,38877
77559,38483
78346,38483
78346,38877
77559,38877
" /> 
<polyline style="fill-rule:evenodd;"
points="71259,38877
71259,38483
72046,38483
72046,38877
71259,38877
" /> 
<polyline style="fill-rule:evenodd;"
points="71259,38287
71259,37893
72046,37893
72046,38287
71259,38287
" /> 
<polyline style="fill-rule:evenodd;"
points="71259,37696
71259,37302
72046,37302
72046,37696
71259,37696
" /> 
<polyline style="fill-rule:evenodd;"
points="71259,37106
71259,36712
72046,36712
72046,37106
71259,37106
" /> 
<polyline style="fill-rule:evenodd;"
points="71259,36515
71259,36121
72046,36121
72046,36515
71259,36515
" /> 
<polyline style="fill-rule:evenodd;"
points="71259,35925
71259,35531
72046,35531
72046,35925
71259,35925
" /> 
<polyline style="fill-rule:evenodd;"
points="71259,35334
71259,34940
72046,34940
72046,35334
71259,35334
" /> 
<polyline style="fill-rule:evenodd;"
points="71259,34744
71259,34350
72046,34350
72046,34744
71259,34744
" /> 
<polyline style="fill-rule:evenodd;"
points="71259,34153
71259,33759
72046,33759
72046,34153
71259,34153
" /> 
<polyline style="fill-rule:evenodd;"
points="71259,33563
71259,33169
72046,33169
72046,33563
71259,33563
" /> 
<polyline style="fill-rule:evenodd;"
points="69409,35324
69409,35167
69842,35167
69842,35324
69409,35324
" /> 
<polyline style="fill-rule:evenodd;"
points="69409,35580
69409,35423
69842,35423
69842,35580
69409,35580
" /> 
<polyline style="fill-rule:evenodd;"
points="69409,35836
69409,35679
69842,35679
69842,35836
69409,35836
" /> 
<polyline style="fill-rule:evenodd;"
points="69409,36092
69409,35935
69842,35935
69842,36092
69409,36092
" /> 
<polyline style="fill-rule:evenodd;"
points="69409,36348
69409,36190
69842,36190
69842,36348
69409,36348
" /> 
<polyline style="fill-rule:evenodd;"
points="69409,36604
69409,36446
69842,36446
69842,36604
69409,36604
" /> 
<polyline style="fill-rule:evenodd;"
points="69409,36860
69409,36702
69842,36702
69842,36860
69409,36860
" /> 
<polyline style="fill-rule:evenodd;"
points="69409,37116
69409,36958
69842,36958
69842,37116
69409,37116
" /> 
<polyline style="fill-rule:evenodd;"
points="69409,37372
69409,37214
69842,37214
69842,37372
69409,37372
" /> 
<polyline style="fill-rule:evenodd;"
points="69409,37627
69409,37470
69842,37470
69842,37627
69409,37627
" /> 
<polyline style="fill-rule:evenodd;"
points="69409,37883
69409,37726
69842,37726
69842,37883
69409,37883
" /> 
<polyline style="fill-rule:evenodd;"
points="69409,38139
69409,37982
69842,37982
69842,38139
69409,38139
" /> 
<polyline style="fill-rule:evenodd;"
points="69409,38395
69409,38238
69842,38238
69842,38395
69409,38395
" /> 
<polyline style="fill-rule:evenodd;"
points="69409,38651
69409,38494
69842,38494
69842,38651
69409,38651
" /> 
<polyline style="fill-rule:evenodd;"
points="67165,38651
67165,38494
67598,38494
67598,38651
67165,38651
" /> 
<polyline style="fill-rule:evenodd;"
points="67165,38395
67165,38238
67598,38238
67598,38395
67165,38395
" /> 
<polyline style="fill-rule:evenodd;"
points="67165,38139
67165,37982
67598,37982
67598,38139
67165,38139
" /> 
<polyline style="fill-rule:evenodd;"
points="67165,37883
67165,37726
67598,37726
67598,37883
67165,37883
" /> 
<polyline style="fill-rule:evenodd;"
points="67165,37627
67165,37470
67598,37470
67598,37627
67165,37627
" /> 
<polyline style="fill-rule:evenodd;"
points="67165,37372
67165,37214
67598,37214
67598,37372
67165,37372
" /> 
<polyline style="fill-rule:evenodd;"
points="67165,37116
67165,36958
67598,36958
67598,37116
67165,37116
" /> 
<polyline style="fill-rule:evenodd;"
points="67165,36860
67165,36702
67598,36702
67598,36860
67165,36860
" /> 
<polyline style="fill-rule:evenodd;"
points="67165,36604
67165,36446
67598,36446
67598,36604
67165,36604
" /> 
<polyline style="fill-rule:evenodd;"
points="67165,36348
67165,36190
67598,36190
67598,36348
67165,36348
" /> 
<polyline style="fill-rule:evenodd;"
points="67165,36092
67165,35935
67598,35935
67598,36092
67165,36092
" /> 
<polyline style="fill-rule:evenodd;"
points="67165,35836
67165,35679
67598,35679
67598,35836
67165,35836
" /> 
<polyline style="fill-rule:evenodd;"
points="67165,35580
67165,35423
67598,35423
67598,35580
67165,35580
" /> 
<polyline style="fill-rule:evenodd;"
points="67165,35324
67165,35167
67598,35167
67598,35324
67165,35324
" /> 
<polyline style="fill-rule:evenodd;"
points="68446,39527
68446,39015
69151,39015
69151,39527
68446,39527
" /> 
<polyline style="fill-rule:evenodd;"
points="69234,39527
69234,39015
69938,39015
69938,39527
69234,39527
" /> 
<polyline style="fill-rule:evenodd;"
points="71104,32736
71104,32224
71809,32224
71809,32736
71104,32736
" /> 
<polyline style="fill-rule:evenodd;"
points="71891,32736
71891,32224
72596,32224
72596,32736
71891,32736
" /> 
<polyline style="fill-rule:evenodd;"
points="66872,34704
66872,34192
67576,34192
67576,34704
66872,34704
" /> 
<polyline style="fill-rule:evenodd;"
points="67659,34704
67659,34192
68364,34192
68364,34704
67659,34704
" /> 
<polyline style="fill-rule:evenodd;"
points="64527,37950
64015,37950
64015,37246
64527,37246
64527,37950
" /> 
<polyline style="fill-rule:evenodd;"
points="64527,37163
64015,37163
64015,36458
64527,36458
64527,37163
" /> 
<polyline style="fill-rule:evenodd;"
points="64015,33702
64527,33702
64527,34407
64015,34407
64015,33702
" /> 
<polyline style="fill-rule:evenodd;"
points="64015,34490
64527,34490
64527,35194
64015,35194
64015,34490
" /> 
</g> 
</svg>
